<svg width="21" height="18" viewBox="0 0 21 18" fill="none" xmlns="http://www.w3.org/2000/svg">
<path d="M2.48183 14.8259L3.18496 14.0163C3.32489 13.8603 3.39803 13.6555 3.38866 13.4462V13.3132C3.38866 13.0179 3.23437 12.8571 2.93304 12.8571H0.642857C0.557609 12.8571 0.475852 12.891 0.415573 12.9513C0.355293 13.0116 0.321429 13.0933 0.321429 13.1786V13.8214C0.321429 13.9067 0.355293 13.9884 0.415573 14.0487C0.475852 14.109 0.557609 14.1429 0.642857 14.1429H1.56013C1.40426 14.2999 1.25674 14.465 1.11817 14.6375L0.892768 14.9187C0.732054 15.1224 0.68183 15.3257 0.780268 15.5166L0.822455 15.5941C0.942991 15.8255 1.07518 15.9107 1.31464 15.9107H1.50469C1.91973 15.9107 2.14513 16.0087 2.14513 16.2759C2.14513 16.4656 1.97638 16.6062 1.56817 16.6062C1.35488 16.6045 1.14388 16.562 0.946607 16.4808C0.685848 16.325 0.474911 16.3402 0.319821 16.6062L0.0952232 16.9803C-0.0542411 17.2266 -0.0329464 17.4512 0.200893 17.6207C0.51067 17.8092 1.01973 18 1.6875 18C3.06 18 3.63616 17.0859 3.63616 16.2273C3.63496 15.6496 3.26973 15.0316 2.48183 14.8259V14.8259ZM19.9286 7.71429H7.07143C6.90093 7.71429 6.73742 7.78202 6.61686 7.90257C6.4963 8.02313 6.42857 8.18665 6.42857 8.35714V9.64286C6.42857 9.81335 6.4963 9.97687 6.61686 10.0974C6.73742 10.218 6.90093 10.2857 7.07143 10.2857H19.9286C20.0991 10.2857 20.2626 10.218 20.3831 10.0974C20.5037 9.97687 20.5714 9.81335 20.5714 9.64286V8.35714C20.5714 8.18665 20.5037 8.02313 20.3831 7.90257C20.2626 7.78202 20.0991 7.71429 19.9286 7.71429ZM19.9286 1.28571H7.07143C6.90093 1.28571 6.73742 1.35344 6.61686 1.474C6.4963 1.59456 6.42857 1.75808 6.42857 1.92857V3.21429C6.42857 3.38478 6.4963 3.5483 6.61686 3.66885C6.73742 3.78941 6.90093 3.85714 7.07143 3.85714H19.9286C20.0991 3.85714 20.2626 3.78941 20.3831 3.66885C20.5037 3.5483 20.5714 3.38478 20.5714 3.21429V1.92857C20.5714 1.75808 20.5037 1.59456 20.3831 1.474C20.2626 1.35344 20.0991 1.28571 19.9286 1.28571V1.28571ZM19.9286 14.1429H7.07143C6.90093 14.1429 6.73742 14.2106 6.61686 14.3311C6.4963 14.4517 6.42857 14.6152 6.42857 14.7857V16.0714C6.42857 16.2419 6.4963 16.4054 6.61686 16.526C6.73742 16.6466 6.90093 16.7143 7.07143 16.7143H19.9286C20.0991 16.7143 20.2626 16.6466 20.3831 16.526C20.5037 16.4054 20.5714 16.2419 20.5714 16.0714V14.7857C20.5714 14.6152 20.5037 14.4517 20.3831 14.3311C20.2626 14.2106 20.0991 14.1429 19.9286 14.1429ZM0.642857 5.14286H3.21429C3.29953 5.14286 3.38129 5.10899 3.44157 5.04871C3.50185 4.98843 3.53571 4.90668 3.53571 4.82143V4.17857C3.53571 4.09332 3.50185 4.01157 3.44157 3.95129C3.38129 3.89101 3.29953 3.85714 3.21429 3.85714H2.57143V0.321429C2.57143 0.23618 2.53756 0.154424 2.47728 0.0941443C2.417 0.0338648 2.33525 0 2.25 0H1.28571C1.22614 0.000106331 1.16776 0.0167692 1.1171 0.0481285C1.06645 0.0794878 1.0255 0.124309 0.998839 0.177589L0.677411 0.820446C0.65291 0.869408 0.641322 0.923817 0.643745 0.978513C0.646169 1.03321 0.662523 1.08638 0.691258 1.13298C0.719992 1.17959 0.760155 1.21808 0.807937 1.24481C0.855719 1.27154 0.909536 1.28562 0.964286 1.28571H1.28571V3.85714H0.642857C0.557609 3.85714 0.475852 3.89101 0.415573 3.95129C0.355293 4.01157 0.321429 4.09332 0.321429 4.17857V4.82143C0.321429 4.90668 0.355293 4.98843 0.415573 5.04871C0.475852 5.10899 0.557609 5.14286 0.642857 5.14286ZM0.485759 11.5714H3.21429C3.29953 11.5714 3.38129 11.5376 3.44157 11.4773C3.50185 11.417 3.53571 11.3352 3.53571 11.25V10.6071C3.53571 10.5219 3.50185 10.4401 3.44157 10.3799C3.38129 10.3196 3.29953 10.2857 3.21429 10.2857H1.66018C1.79237 9.87228 3.60241 9.53518 3.60241 8.01804C3.60241 6.85045 2.59795 6.42857 1.81567 6.42857C0.957455 6.42857 0.457634 6.83036 0.190045 7.18192C0.0144643 7.40652 0.0695089 7.61746 0.302545 7.79946L0.647277 8.07589C0.872679 8.25911 1.08924 8.17513 1.29496 7.97786C1.39643 7.87843 1.53299 7.823 1.67504 7.82357C1.80884 7.82357 2.0479 7.88625 2.0479 8.17513C2.04911 8.68621 0 9.05263 0 10.9523V11.113C0 11.4107 0.204107 11.5714 0.485759 11.5714V11.5714Z" fill="#313638"/>
</svg>
