<svg width="35" height="35" viewBox="0 0 35 35" fill="none" xmlns="http://www.w3.org/2000/svg">
<path d="M24.1341 17.5L34.0842 7.54986C35.3053 6.32883 35.3053 4.34915 34.0842 3.12713L31.8729 0.915767C30.6518 -0.305256 28.6722 -0.305256 27.4501 0.915767L17.5 10.8659L7.54986 0.915767C6.32884 -0.305256 4.34915 -0.305256 3.12713 0.915767L0.915767 3.12713C-0.305256 4.34815 -0.305256 6.32784 0.915767 7.54986L10.8659 17.5L0.915767 27.4501C-0.305256 28.6712 -0.305256 30.6509 0.915767 31.8729L3.12713 34.0842C4.34815 35.3053 6.32884 35.3053 7.54986 34.0842L17.5 24.1341L27.4501 34.0842C28.6712 35.3053 30.6518 35.3053 31.8729 34.0842L34.0842 31.8729C35.3053 30.6518 35.3053 28.6722 34.0842 27.4501L24.1341 17.5Z" fill="#696969"/>
</svg>
