<svg width="13" height="18" viewBox="0 0 13 18" fill="none" xmlns="http://www.w3.org/2000/svg">
<path d="M12.8571 0.642857V1.92857C12.8571 2.09907 12.7894 2.26258 12.6689 2.38314C12.5483 2.5037 12.3848 2.57143 12.2143 2.57143H9.69268L6.47839 15.4286H8.35714C8.52764 15.4286 8.69115 15.4963 8.81171 15.6169C8.93227 15.7374 9 15.9009 9 16.0714V17.3571C9 17.5276 8.93227 17.6912 8.81171 17.8117C8.69115 17.9323 8.52764 18 8.35714 18H0.642857C0.472361 18 0.308848 17.9323 0.188289 17.8117C0.0677294 17.6912 0 17.5276 0 17.3571V16.0714C0 15.9009 0.0677294 15.7374 0.188289 15.6169C0.308848 15.4963 0.472361 15.4286 0.642857 15.4286H3.16446L6.37875 2.57143H4.5C4.3295 2.57143 4.16599 2.5037 4.04543 2.38314C3.92487 2.26258 3.85714 2.09907 3.85714 1.92857V0.642857C3.85714 0.472361 3.92487 0.308848 4.04543 0.188288C4.16599 0.0677294 4.3295 0 4.5 0H12.2143C12.3848 0 12.5483 0.0677294 12.6689 0.188288C12.7894 0.308848 12.8571 0.472361 12.8571 0.642857Z" fill="#313638"/>
</svg>
