<svg width="18" height="18" viewBox="0 0 18 18" fill="none" xmlns="http://www.w3.org/2000/svg">
<path d="M0 16.8743L3.30616 18L4.47914 16.7537L2.26091 14.3969L0 16.8743ZM4.12311 8.43653C3.94892 8.59987 3.82264 8.813 3.75934 9.0505C3.69603 9.28801 3.69838 9.53984 3.76609 9.77597L4.19789 11.2817L2.51271 13.0725L5.69678 16.4556L7.37964 14.6676L8.79383 15.1274C9.24813 15.2751 9.7418 15.1271 10.0561 14.7484L11.2324 13.2845L5.49693 7.1906L4.12311 8.43653ZM17.4679 2.78697L15.3767 0.565114C14.6987 -0.155231 13.6105 -0.191442 12.8911 0.482498L6.30494 6.4576L11.9223 12.4264L17.5456 5.42824C18.1803 4.66395 18.1462 3.50767 17.4679 2.78697Z" fill="#313638"/>
</svg>
