<svg width="36" height="35" viewBox="0 0 36 35" fill="none" xmlns="http://www.w3.org/2000/svg">
<circle cx="17.8469" cy="17.5" r="17.5" fill="#F81411"/>
<path d="M21.7909 18L27.4767 12.3142C28.1744 11.6165 28.1744 10.4852 27.4767 9.78693L26.2131 8.5233C25.5153 7.82557 24.3841 7.82557 23.6858 8.5233L18 14.2091L12.3142 8.5233C11.6165 7.82557 10.4852 7.82557 9.78693 8.5233L8.5233 9.78693C7.82557 10.4847 7.82557 11.6159 8.5233 12.3142L14.2091 18L8.5233 23.6858C7.82557 24.3835 7.82557 25.5148 8.5233 26.2131L9.78693 27.4767C10.4847 28.1744 11.6165 28.1744 12.3142 27.4767L18 21.7909L23.6858 27.4767C24.3835 28.1744 25.5153 28.1744 26.2131 27.4767L27.4767 26.2131C28.1744 25.5153 28.1744 24.3841 27.4767 23.6858L21.7909 18Z" fill="white"/>
</svg>
