<svg width="35" height="35" viewBox="0 0 35 35" fill="none" xmlns="http://www.w3.org/2000/svg">
<path d="M34.524 30.2597L27.7081 23.445C27.4004 23.1374 26.9834 22.9665 26.5459 22.9665H25.4315C27.3184 20.5537 28.4396 17.5188 28.4396 14.2174C28.4396 6.36364 22.0749 0 14.2198 0C6.36472 0 0 6.36364 0 14.2174C0 22.0711 6.36472 28.4347 14.2198 28.4347C17.5218 28.4347 20.5572 27.3137 22.9704 25.4272V26.5414C22.9704 26.9788 23.1413 27.3958 23.449 27.7033L30.2649 34.5181C30.9075 35.1606 31.9467 35.1606 32.5825 34.5181L34.5172 32.5837C35.1598 31.9412 35.1598 30.9023 34.524 30.2597ZM14.2198 22.9665C9.38643 22.9665 5.46915 19.0567 5.46915 14.2174C5.46915 9.38483 9.37959 5.46822 14.2198 5.46822C19.0532 5.46822 22.9704 9.37799 22.9704 14.2174C22.9704 19.0499 19.06 22.9665 14.2198 22.9665Z" fill="#696969"/>
</svg>
