<svg width="15" height="14" viewBox="0 0 15 14" fill="none" xmlns="http://www.w3.org/2000/svg">
<path d="M14.2071 11.6571H13.4373L9.13861 0.658446C9.0678 0.466389 8.93363 0.299615 8.75491 0.181526C8.5762 0.0634374 8.36192 -4.03767e-05 8.14214 1.92684e-08H6.59119C6.37141 -4.03767e-05 6.15713 0.0634374 5.97842 0.181526C5.79971 0.299615 5.66553 0.466389 5.59472 0.658446L1.29607 11.6571H0.52619C0.386636 11.6571 0.252797 11.7083 0.154118 11.7994C0.0554378 11.8905 0 12.014 0 12.1429L0 13.1143C0 13.2431 0.0554378 13.3666 0.154118 13.4577C0.252797 13.5488 0.386636 13.6 0.52619 13.6H4.73571C4.87527 13.6 5.00911 13.5488 5.10779 13.4577C5.20647 13.3666 5.2619 13.2431 5.2619 13.1143V12.1429C5.2619 12.014 5.20647 11.8905 5.10779 11.7994C5.00911 11.7083 4.87527 11.6571 4.73571 11.6571H4.09179L4.85805 9.71429H9.87528L10.6415 11.6571H9.99762C9.85806 11.6571 9.72423 11.7083 9.62555 11.7994C9.52687 11.8905 9.47143 12.014 9.47143 12.1429V13.1143C9.47143 13.2431 9.52687 13.3666 9.62555 13.4577C9.72423 13.5488 9.85806 13.6 9.99762 13.6H14.2071C14.3467 13.6 14.4805 13.5488 14.5792 13.4577C14.6779 13.3666 14.7333 13.2431 14.7333 13.1143V12.1429C14.7333 12.014 14.6779 11.8905 14.5792 11.7994C14.4805 11.7083 14.3467 11.6571 14.2071 11.6571ZM5.81605 7.28571L7.36667 3.35477L8.91728 7.28571H5.81605Z" fill="#313638"/>
</svg>
