<svg width="50" height="15" viewBox="0 0 50 15" fill="none" xmlns="http://www.w3.org/2000/svg">
<path d="M32.2581 7.25806C32.2581 11.2702 29.0121 14.5161 25 14.5161C20.9879 14.5161 17.7419 11.2702 17.7419 7.25806C17.7419 3.24597 20.9879 0 25 0C29.0121 0 32.2581 3.24597 32.2581 7.25806ZM42.7419 0C38.7298 0 35.4839 3.24597 35.4839 7.25806C35.4839 11.2702 38.7298 14.5161 42.7419 14.5161C46.754 14.5161 50 11.2702 50 7.25806C50 3.24597 46.754 0 42.7419 0ZM7.25806 0C3.24597 0 0 3.24597 0 7.25806C0 11.2702 3.24597 14.5161 7.25806 14.5161C11.2702 14.5161 14.5161 11.2702 14.5161 7.25806C14.5161 3.24597 11.2702 0 7.25806 0Z" fill="#696969"/>
</svg>
