<svg width="40" height="40" viewBox="0 0 40 40" fill="none" xmlns="http://www.w3.org/2000/svg">
<path d="M39.4891 24.8064L35.9004 22.8226C36.2626 20.9516 36.2626 19.0323 35.9004 17.1613L39.4891 15.1774C39.9019 14.9516 40.0872 14.4839 39.9524 14.0484C39.0173 11.1775 37.4252 8.58069 35.3444 6.41941C35.0243 6.08876 34.5019 6.00812 34.0976 6.23392L30.5089 8.21779C29.0009 6.97586 27.2655 6.01618 25.3869 5.38715V1.42749C25.3869 0.975878 25.0584 0.580719 24.5951 0.483945C21.5034 -0.177343 18.3358 -0.145085 15.3958 0.483945C14.9325 0.580719 14.6039 0.975878 14.6039 1.42749V5.39522C12.7337 6.03231 10.9983 6.99198 9.48199 8.22585L5.90169 6.24199C5.4889 6.01618 4.97502 6.08876 4.6549 6.42747C2.57412 8.58069 0.981938 11.1775 0.0468488 14.0565C-0.0963631 14.492 0.0973941 14.9597 0.510181 15.1855L4.0989 17.1694C3.73666 19.0403 3.73666 20.9597 4.0989 22.8306L0.510181 24.8145C0.0973941 25.0403 -0.0879389 25.508 0.0468488 25.9435C0.981938 28.8145 2.57412 31.4112 4.6549 33.5725C4.97502 33.9032 5.49732 33.9838 5.90169 33.758L9.49041 31.7741C10.9983 33.0161 12.7337 33.9758 14.6123 34.6048V38.5725C14.6123 39.0241 14.9409 39.4193 15.4042 39.5161C18.4959 40.1773 21.6634 40.1451 24.6035 39.5161C25.0668 39.4193 25.3954 39.0241 25.3954 38.5725V34.6048C27.2655 33.9677 29.0009 33.008 30.5173 31.7741L34.106 33.758C34.5188 33.9838 35.0327 33.9112 35.3528 33.5725C37.4336 31.4193 39.0258 28.8225 39.9608 25.9435C40.0872 25.5 39.9019 25.0322 39.4891 24.8064ZM19.9954 26.4435C16.2803 26.4435 13.256 23.5484 13.256 19.9919C13.256 16.4355 16.2803 13.5403 19.9954 13.5403C23.7105 13.5403 26.7348 16.4355 26.7348 19.9919C26.7348 23.5484 23.7105 26.4435 19.9954 26.4435Z" fill="#696969"/>
</svg>
