<svg width="50" height="50" viewBox="0 0 50 50" fill="none" xmlns="http://www.w3.org/2000/svg">
<circle cx="25" cy="25" r="25" fill="#F81411"/>
<path d="M37.8571 22.8968H28.2143V13.2539C28.2143 12.0707 27.2547 11.1111 26.0714 11.1111H23.9286C22.7453 11.1111 21.7857 12.0707 21.7857 13.2539V22.8968H12.1429C10.9596 22.8968 10 23.8564 10 25.0397V27.1825C10 28.3658 10.9596 29.3254 12.1429 29.3254H21.7857V38.9682C21.7857 40.1515 22.7453 41.1111 23.9286 41.1111H26.0714C27.2547 41.1111 28.2143 40.1515 28.2143 38.9682V29.3254H37.8571C39.0404 29.3254 40 28.3658 40 27.1825V25.0397C40 23.8564 39.0404 22.8968 37.8571 22.8968Z" fill="white"/>
</svg>
