<svg width="15" height="18" viewBox="0 0 15 18" fill="none" xmlns="http://www.w3.org/2000/svg">
<path d="M12.6759 8.27679C13.2878 7.52939 13.6652 6.6179 13.7608 5.65674C14.0573 2.59112 11.6518 0 8.65527 0H0.642857C0.472361 0 0.308848 0.0677294 0.188288 0.188288C0.0677294 0.308848 0 0.472361 0 0.642857V2.57143C0 2.74192 0.0677294 2.90544 0.188288 3.026C0.308848 3.14656 0.472361 3.21429 0.642857 3.21429H1.92335V14.7857H0.642857C0.472361 14.7857 0.308848 14.8534 0.188288 14.974C0.0677294 15.0946 0 15.2581 0 15.4286V17.3571C0 17.5276 0.0677294 17.6912 0.188288 17.8117C0.308848 17.9323 0.472361 18 0.642857 18H9.05304C11.8977 18 14.4426 15.9208 14.7182 13.0821C14.9087 11.1355 14.0597 9.3833 12.6759 8.27679V8.27679ZM5.1292 3.21429H8.65527C9.16676 3.21429 9.6573 3.41747 10.019 3.77915C10.3807 4.14083 10.5838 4.63137 10.5838 5.14286C10.5838 5.65435 10.3807 6.14489 10.019 6.50656C9.6573 6.86824 9.16676 7.07143 8.65527 7.07143H5.1292V3.21429ZM8.65527 14.7857H5.1292V10.2857H8.65527C9.25201 10.2857 9.8243 10.5228 10.2463 10.9447C10.6682 11.3667 10.9053 11.939 10.9053 12.5357C10.9053 13.1325 10.6682 13.7047 10.2463 14.1267C9.8243 14.5487 9.25201 14.7857 8.65527 14.7857V14.7857Z" fill="#313638"/>
</svg>
