<svg width="21" height="18" viewBox="0 0 21 18" fill="none" xmlns="http://www.w3.org/2000/svg">
<path d="M19.9286 7.71429H11.8085L8.30612 6.63629C7.90575 6.51296 7.56292 6.25008 7.33993 5.89542C7.11695 5.54077 7.0286 5.11788 7.09096 4.70362C7.15332 4.28935 7.36223 3.91121 7.67974 3.63791C7.99725 3.36461 8.40227 3.2143 8.82121 3.21429H11.5047C11.8773 3.21401 12.2425 3.31756 12.5594 3.51329C12.8764 3.70903 13.1325 3.98921 13.2991 4.32241C13.3754 4.4748 13.5091 4.59067 13.6708 4.64454C13.8324 4.69841 14.0089 4.68587 14.1613 4.60969L15.8866 3.74705C16.0391 3.67084 16.155 3.53719 16.209 3.3755C16.2629 3.21381 16.2504 3.03731 16.1743 2.88482L16.153 2.84464C15.726 1.98986 15.0693 1.27092 14.2566 0.76847C13.4439 0.266017 12.5072 -8.70145e-05 11.5517 2.13435e-08H8.8196C8.12684 0.000562186 7.44185 0.145965 6.80861 0.426875C6.17536 0.707785 5.60784 1.118 5.14248 1.63118C4.67713 2.14436 4.32421 2.74917 4.10638 3.40679C3.88856 4.06441 3.81064 4.76031 3.87763 5.44982C3.95799 6.28915 4.28344 7.05013 4.75272 7.71429H0.642857C0.472361 7.71429 0.308848 7.78202 0.188289 7.90257C0.0677294 8.02313 0 8.18665 0 8.35714L0 9.64286C0 9.81335 0.0677294 9.97687 0.188289 10.0974C0.308848 10.218 0.472361 10.2857 0.642857 10.2857H19.9286C20.0991 10.2857 20.2626 10.218 20.3831 10.0974C20.5037 9.97687 20.5714 9.81335 20.5714 9.64286V8.35714C20.5714 8.18665 20.5037 8.02313 20.3831 7.90257C20.2626 7.78202 20.0991 7.71429 19.9286 7.71429ZM12.6868 11.5714C12.9354 11.7265 13.1405 11.9423 13.2828 12.1985C13.425 12.4547 13.4998 12.7429 13.5 13.0359C13.4996 13.4999 13.3151 13.9447 12.987 14.2727C12.659 14.6008 12.2142 14.7853 11.7502 14.7857H9.0667C8.69418 14.786 8.32895 14.6824 8.012 14.4867C7.69504 14.291 7.43891 14.0108 7.27232 13.6776C7.19603 13.5252 7.06236 13.4093 6.90067 13.3555C6.73899 13.3016 6.56253 13.3141 6.41009 13.3903L4.68482 14.2529C4.53236 14.3292 4.41641 14.4628 4.36246 14.6245C4.30851 14.7862 4.32099 14.9627 4.39714 15.1152L4.41844 15.1554C4.84543 16.0101 5.50211 16.7291 6.31483 17.2315C7.12756 17.734 8.06419 18.0001 9.01969 18H11.7518C12.4446 17.9994 13.1296 17.854 13.7628 17.5731C14.3961 17.2922 14.9636 16.882 15.4289 16.3688C15.8943 15.8556 16.2472 15.2508 16.465 14.5932C16.6829 13.9356 16.7608 13.2397 16.6938 12.5502C16.6582 12.2171 16.5863 11.8889 16.4792 11.5714H12.6868Z" fill="#313638"/>
</svg>
