<svg width="18" height="18" viewBox="0 0 18 18" fill="none" xmlns="http://www.w3.org/2000/svg">
<path d="M0.515491 12.8571H11.0559C11.1236 12.8572 11.1907 12.8439 11.2533 12.818C11.3158 12.7921 11.3727 12.7542 11.4206 12.7063C11.4684 12.6584 11.5064 12.6016 11.5323 12.539C11.5582 12.4764 11.5715 12.4094 11.5714 12.3417V10.8012C11.5715 10.7335 11.5582 10.6664 11.5323 10.6039C11.5064 10.5413 11.4684 10.4845 11.4206 10.4366C11.3727 10.3887 11.3158 10.3507 11.2533 10.3248C11.1907 10.299 11.1236 10.2857 11.0559 10.2857H0.515491C0.447781 10.2857 0.380725 10.299 0.318159 10.3248C0.255593 10.3507 0.198744 10.3887 0.150866 10.4366C0.102988 10.4845 0.0650191 10.5413 0.039132 10.6039C0.0132448 10.6664 -5.26798e-05 10.7335 1.56839e-07 10.8012V12.3417C-5.26798e-05 12.4094 0.0132448 12.4764 0.039132 12.539C0.0650191 12.6016 0.102988 12.6584 0.150866 12.7063C0.198744 12.7542 0.255593 12.7921 0.318159 12.818C0.380725 12.8439 0.447781 12.8572 0.515491 12.8571V12.8571ZM0.515491 2.57143H11.0559C11.1236 2.57148 11.1907 2.55818 11.2533 2.5323C11.3158 2.50641 11.3727 2.46844 11.4206 2.42056C11.4684 2.37268 11.5064 2.31584 11.5323 2.25327C11.5582 2.1907 11.5715 2.12365 11.5714 2.05594V0.515491C11.5715 0.447781 11.5582 0.380725 11.5323 0.318159C11.5064 0.255593 11.4684 0.198744 11.4206 0.150866C11.3727 0.102988 11.3158 0.065019 11.2533 0.0391319C11.1907 0.0132448 11.1236 -5.26798e-05 11.0559 1.5684e-07H0.515491C0.447781 -5.26798e-05 0.380725 0.0132448 0.318159 0.0391319C0.255593 0.065019 0.198744 0.102988 0.150866 0.150866C0.102988 0.198744 0.0650191 0.255593 0.039132 0.318159C0.0132448 0.380725 -5.26798e-05 0.447781 1.56839e-07 0.515491V2.05594C-5.26798e-05 2.12365 0.0132448 2.1907 0.039132 2.25327C0.0650191 2.31584 0.102988 2.37268 0.150866 2.42056C0.198744 2.46844 0.255593 2.50641 0.318159 2.5323C0.380725 2.55818 0.447781 2.57148 0.515491 2.57143V2.57143ZM17.3571 5.14286H0.642857C0.472361 5.14286 0.308848 5.21059 0.188289 5.33115C0.0677296 5.4517 1.56839e-07 5.61522 1.56839e-07 5.78571V7.07143C1.56839e-07 7.24192 0.0677296 7.40544 0.188289 7.526C0.308848 7.64656 0.472361 7.71429 0.642857 7.71429H17.3571C17.5276 7.71429 17.6912 7.64656 17.8117 7.526C17.9323 7.40544 18 7.24192 18 7.07143V5.78571C18 5.61522 17.9323 5.4517 17.8117 5.33115C17.6912 5.21059 17.5276 5.14286 17.3571 5.14286ZM17.3571 15.4286H0.642857C0.472361 15.4286 0.308848 15.4963 0.188289 15.6169C0.0677296 15.7374 1.56839e-07 15.9009 1.56839e-07 16.0714V17.3571C1.56839e-07 17.5276 0.0677296 17.6912 0.188289 17.8117C0.308848 17.9323 0.472361 18 0.642857 18H17.3571C17.5276 18 17.6912 17.9323 17.8117 17.8117C17.9323 17.6912 18 17.5276 18 17.3571V16.0714C18 15.9009 17.9323 15.7374 17.8117 15.6169C17.6912 15.4963 17.5276 15.4286 17.3571 15.4286Z" fill="#313638"/>
</svg>
