<svg width="40" height="35" viewBox="0 0 40 35" fill="none" xmlns="http://www.w3.org/2000/svg">
<path d="M1.42857 6.42857H38.5714C39.3604 6.42857 40 5.78902 40 5V1.42857C40 0.639554 39.3604 0 38.5714 0H1.42857C0.639554 0 0 0.639554 0 1.42857V5C0 5.78902 0.639554 6.42857 1.42857 6.42857ZM1.42857 20.7143H38.5714C39.3604 20.7143 40 20.0747 40 19.2857V15.7143C40 14.9253 39.3604 14.2857 38.5714 14.2857H1.42857C0.639554 14.2857 0 14.9253 0 15.7143V19.2857C0 20.0747 0.639554 20.7143 1.42857 20.7143ZM1.42857 35H38.5714C39.3604 35 40 34.3604 40 33.5714V30C40 29.211 39.3604 28.5714 38.5714 28.5714H1.42857C0.639554 28.5714 0 29.211 0 30V33.5714C0 34.3604 0.639554 35 1.42857 35Z" fill="#696969"/>
</svg>
