<svg width="21" height="17" viewBox="0 0 21 17" fill="none" xmlns="http://www.w3.org/2000/svg">
<path d="M3.26923 13.0769H0.653846C0.480435 13.0769 0.314127 13.1458 0.191507 13.2684C0.0688872 13.391 0 13.5574 0 13.7308L0 16.3462C0 16.5196 0.0688872 16.6859 0.191507 16.8085C0.314127 16.9311 0.480435 17 0.653846 17H3.26923C3.44264 17 3.60895 16.9311 3.73157 16.8085C3.85419 16.6859 3.92308 16.5196 3.92308 16.3462V13.7308C3.92308 13.5574 3.85419 13.391 3.73157 13.2684C3.60895 13.1458 3.44264 13.0769 3.26923 13.0769ZM3.26923 0H0.653846C0.480435 0 0.314127 0.0688871 0.191507 0.191507C0.0688872 0.314127 0 0.480435 0 0.653846L0 3.26923C0 3.44264 0.0688872 3.60895 0.191507 3.73157C0.314127 3.85419 0.480435 3.92308 0.653846 3.92308H3.26923C3.44264 3.92308 3.60895 3.85419 3.73157 3.73157C3.85419 3.60895 3.92308 3.44264 3.92308 3.26923V0.653846C3.92308 0.480435 3.85419 0.314127 3.73157 0.191507C3.60895 0.0688871 3.44264 0 3.26923 0V0ZM3.26923 6.53846H0.653846C0.480435 6.53846 0.314127 6.60735 0.191507 6.72997C0.0688872 6.85259 0 7.0189 0 7.19231L0 9.80769C0 9.9811 0.0688872 10.1474 0.191507 10.27C0.314127 10.3927 0.480435 10.4615 0.653846 10.4615H3.26923C3.44264 10.4615 3.60895 10.3927 3.73157 10.27C3.85419 10.1474 3.92308 9.9811 3.92308 9.80769V7.19231C3.92308 7.0189 3.85419 6.85259 3.73157 6.72997C3.60895 6.60735 3.44264 6.53846 3.26923 6.53846ZM20.2692 13.7308H7.19231C7.0189 13.7308 6.85259 13.7997 6.72997 13.9223C6.60735 14.0449 6.53846 14.2112 6.53846 14.3846V15.6923C6.53846 15.8657 6.60735 16.032 6.72997 16.1546C6.85259 16.2773 7.0189 16.3462 7.19231 16.3462H20.2692C20.4426 16.3462 20.609 16.2773 20.7316 16.1546C20.8542 16.032 20.9231 15.8657 20.9231 15.6923V14.3846C20.9231 14.2112 20.8542 14.0449 20.7316 13.9223C20.609 13.7997 20.4426 13.7308 20.2692 13.7308ZM20.2692 0.653846H7.19231C7.0189 0.653846 6.85259 0.722733 6.72997 0.845353C6.60735 0.967973 6.53846 1.13428 6.53846 1.30769V2.61538C6.53846 2.7888 6.60735 2.9551 6.72997 3.07772C6.85259 3.20034 7.0189 3.26923 7.19231 3.26923H20.2692C20.4426 3.26923 20.609 3.20034 20.7316 3.07772C20.8542 2.9551 20.9231 2.7888 20.9231 2.61538V1.30769C20.9231 1.13428 20.8542 0.967973 20.7316 0.845353C20.609 0.722733 20.4426 0.653846 20.2692 0.653846V0.653846ZM20.2692 7.19231H7.19231C7.0189 7.19231 6.85259 7.26119 6.72997 7.38381C6.60735 7.50643 6.53846 7.67274 6.53846 7.84615V9.15385C6.53846 9.32726 6.60735 9.49357 6.72997 9.61619C6.85259 9.73881 7.0189 9.80769 7.19231 9.80769H20.2692C20.4426 9.80769 20.609 9.73881 20.7316 9.61619C20.8542 9.49357 20.9231 9.32726 20.9231 9.15385V7.84615C20.9231 7.67274 20.8542 7.50643 20.7316 7.38381C20.609 7.26119 20.4426 7.19231 20.2692 7.19231Z" fill="#313638"/>
</svg>
