<svg width="18" height="18" viewBox="0 0 18 18" fill="none" xmlns="http://www.w3.org/2000/svg">
<path d="M0.642857 7.71429H17.3571C17.5276 7.71429 17.6912 7.64656 17.8117 7.526C17.9323 7.40544 18 7.24192 18 7.07143V5.78571C18 5.61522 17.9323 5.4517 17.8117 5.33115C17.6912 5.21059 17.5276 5.14286 17.3571 5.14286H0.642857C0.472361 5.14286 0.308848 5.21059 0.188289 5.33115C0.0677294 5.4517 0 5.61522 0 5.78571L0 7.07143C0 7.24192 0.0677294 7.40544 0.188289 7.526C0.308848 7.64656 0.472361 7.71429 0.642857 7.71429ZM17.3571 15.4286H0.642857C0.472361 15.4286 0.308848 15.4963 0.188289 15.6169C0.0677294 15.7374 0 15.9009 0 16.0714L0 17.3571C0 17.5276 0.0677294 17.6912 0.188289 17.8117C0.308848 17.9323 0.472361 18 0.642857 18H17.3571C17.5276 18 17.6912 17.9323 17.8117 17.8117C17.9323 17.6912 18 17.5276 18 17.3571V16.0714C18 15.9009 17.9323 15.7374 17.8117 15.6169C17.6912 15.4963 17.5276 15.4286 17.3571 15.4286ZM17.4845 1.5684e-07H6.94406C6.87635 -5.26798e-05 6.8093 0.0132448 6.74673 0.0391319C6.68416 0.065019 6.62732 0.102988 6.57944 0.150866C6.53156 0.198744 6.49359 0.255593 6.4677 0.318159C6.44182 0.380725 6.42852 0.447781 6.42857 0.515491V2.05594C6.42852 2.12365 6.44182 2.1907 6.4677 2.25327C6.49359 2.31584 6.53156 2.37268 6.57944 2.42056C6.62732 2.46844 6.68416 2.50641 6.74673 2.5323C6.8093 2.55818 6.87635 2.57148 6.94406 2.57143H17.4845C17.5522 2.57148 17.6193 2.55818 17.6818 2.5323C17.7444 2.50641 17.8013 2.46844 17.8491 2.42056C17.897 2.37268 17.935 2.31584 17.9609 2.25327C17.9868 2.1907 18.0001 2.12365 18 2.05594V0.515491C18.0001 0.447781 17.9868 0.380725 17.9609 0.318159C17.935 0.255593 17.897 0.198744 17.8491 0.150866C17.8013 0.102988 17.7444 0.065019 17.6818 0.0391319C17.6193 0.0132448 17.5522 -5.26798e-05 17.4845 1.5684e-07ZM17.4845 10.2857H6.94406C6.87635 10.2857 6.8093 10.299 6.74673 10.3248C6.68416 10.3507 6.62732 10.3887 6.57944 10.4366C6.53156 10.4845 6.49359 10.5413 6.4677 10.6039C6.44182 10.6664 6.42852 10.7335 6.42857 10.8012V12.3417C6.42852 12.4094 6.44182 12.4764 6.4677 12.539C6.49359 12.6016 6.53156 12.6584 6.57944 12.7063C6.62732 12.7542 6.68416 12.7921 6.74673 12.818C6.8093 12.8439 6.87635 12.8572 6.94406 12.8571H17.4845C17.5522 12.8572 17.6193 12.8439 17.6818 12.818C17.7444 12.7921 17.8013 12.7542 17.8491 12.7063C17.897 12.6584 17.935 12.6016 17.9609 12.539C17.9868 12.4764 18.0001 12.4094 18 12.3417V10.8012C18.0001 10.7335 17.9868 10.6664 17.9609 10.6039C17.935 10.5413 17.897 10.4845 17.8491 10.4366C17.8013 10.3887 17.7444 10.3507 17.6818 10.3248C17.6193 10.299 17.5522 10.2857 17.4845 10.2857Z" fill="#313638"/>
</svg>
