<svg width="80" height="80" viewBox="0 0 80 80" fill="none" xmlns="http://www.w3.org/2000/svg">
<path d="M46.25 59.9971H33.75C31.6719 59.9971 30 58.3249 30 56.2465V29.9927H16.2969C13.5156 29.9927 12.125 26.6328 14.0937 24.6638L37.8594 0.879035C39.0313 -0.293012 40.9531 -0.293012 42.125 0.879035L65.9062 24.6638C67.875 26.6328 66.4844 29.9927 63.7031 29.9927H50V56.2465C50 58.3249 48.3281 59.9971 46.25 59.9971ZM80 58.7469V76.2494C80 78.3279 78.3281 80 76.25 80H3.75C1.67187 80 0 78.3279 0 76.2494V58.7469C0 56.6685 1.67187 54.9963 3.75 54.9963H25V56.2465C25 61.0753 28.9219 64.9978 33.75 64.9978H46.25C51.0781 64.9978 55 61.0753 55 56.2465V54.9963H76.25C78.3281 54.9963 80 56.6685 80 58.7469ZM60.625 72.4989C60.625 70.7799 59.2188 69.3734 57.5 69.3734C55.7812 69.3734 54.375 70.7799 54.375 72.4989C54.375 74.2179 55.7812 75.6244 57.5 75.6244C59.2188 75.6244 60.625 74.2179 60.625 72.4989ZM70.625 72.4989C70.625 70.7799 69.2188 69.3734 67.5 69.3734C65.7812 69.3734 64.375 70.7799 64.375 72.4989C64.375 74.2179 65.7812 75.6244 67.5 75.6244C69.2188 75.6244 70.625 74.2179 70.625 72.4989Z" fill="#313638"/>
</svg>
