<svg width="16" height="18" viewBox="0 0 16 18" fill="none" xmlns="http://www.w3.org/2000/svg">
<path d="M1.125 2.25H2.25V7.875C2.25 10.9765 4.77352 13.5 7.875 13.5C10.9765 13.5 13.5 10.9765 13.5 7.875V2.25H14.625C14.7742 2.25 14.9173 2.19074 15.0227 2.08525C15.1282 1.97976 15.1875 1.83668 15.1875 1.6875V0.5625C15.1875 0.413316 15.1282 0.270242 15.0227 0.164752C14.9173 0.0592632 14.7742 0 14.625 0L9.5625 0C9.41332 0 9.27024 0.0592632 9.16475 0.164752C9.05926 0.270242 9 0.413316 9 0.5625V1.6875C9 1.83668 9.05926 1.97976 9.16475 2.08525C9.27024 2.19074 9.41332 2.25 9.5625 2.25H10.6875V7.875C10.6875 8.62092 10.3912 9.33629 9.86374 9.86374C9.33629 10.3912 8.62092 10.6875 7.875 10.6875C7.12908 10.6875 6.41371 10.3912 5.88626 9.86374C5.35882 9.33629 5.0625 8.62092 5.0625 7.875V2.25H6.1875C6.33668 2.25 6.47976 2.19074 6.58525 2.08525C6.69074 1.97976 6.75 1.83668 6.75 1.6875V0.5625C6.75 0.413316 6.69074 0.270242 6.58525 0.164752C6.47976 0.0592632 6.33668 0 6.1875 0L1.125 0C0.975816 0 0.832742 0.0592632 0.727252 0.164752C0.621763 0.270242 0.5625 0.413316 0.5625 0.5625V1.6875C0.5625 1.83668 0.621763 1.97976 0.727252 2.08525C0.832742 2.19074 0.975816 2.25 1.125 2.25ZM15.1875 15.75H0.5625C0.413316 15.75 0.270242 15.8093 0.164752 15.9148C0.0592632 16.0202 0 16.1633 0 16.3125L0 17.4375C0 17.5867 0.0592632 17.7298 0.164752 17.8352C0.270242 17.9407 0.413316 18 0.5625 18H15.1875C15.3367 18 15.4798 17.9407 15.5852 17.8352C15.6907 17.7298 15.75 17.5867 15.75 17.4375V16.3125C15.75 16.1633 15.6907 16.0202 15.5852 15.9148C15.4798 15.8093 15.3367 15.75 15.1875 15.75Z" fill="#313638"/>
</svg>
