<svg width="18" height="18" viewBox="0 0 18 18" fill="none" xmlns="http://www.w3.org/2000/svg">
<path d="M17.3571 5.14286H0.642857C0.472361 5.14286 0.308848 5.21059 0.188289 5.33115C0.0677294 5.4517 0 5.61522 0 5.78571L0 7.07143C0 7.24192 0.0677294 7.40544 0.188289 7.526C0.308848 7.64656 0.472361 7.71429 0.642857 7.71429H17.3571C17.5276 7.71429 17.6912 7.64656 17.8117 7.526C17.9323 7.40544 18 7.24192 18 7.07143V5.78571C18 5.61522 17.9323 5.4517 17.8117 5.33115C17.6912 5.21059 17.5276 5.14286 17.3571 5.14286ZM17.3571 15.4286H0.642857C0.472361 15.4286 0.308848 15.4963 0.188289 15.6169C0.0677294 15.7374 0 15.9009 0 16.0714L0 17.3571C0 17.5276 0.0677294 17.6912 0.188289 17.8117C0.308848 17.9323 0.472361 18 0.642857 18H17.3571C17.5276 18 17.6912 17.9323 17.8117 17.8117C17.9323 17.6912 18 17.5276 18 17.3571V16.0714C18 15.9009 17.9323 15.7374 17.8117 15.6169C17.6912 15.4963 17.5276 15.4286 17.3571 15.4286ZM4.3433 2.57143H13.6571C13.7209 2.57143 13.7841 2.55885 13.8431 2.53441C13.902 2.50998 13.9556 2.47416 14.0007 2.42901C14.0458 2.38386 14.0816 2.33026 14.106 2.27128C14.1304 2.2123 14.1429 2.14909 14.1429 2.08527V0.485759C14.1429 0.421968 14.1303 0.358802 14.1059 0.299867C14.0815 0.240932 14.0457 0.187383 14.0006 0.142276C13.9555 0.0971688 13.9019 0.061388 13.843 0.0369763C13.7841 0.0125647 13.7209 1.66181e-07 13.6571 1.66181e-07H4.3433C4.27948 -5.2625e-05 4.21627 0.0124729 4.15729 0.0368609C4.09831 0.061249 4.04471 0.0970213 3.99956 0.142133C3.95441 0.187246 3.91859 0.240813 3.89416 0.299774C3.86972 0.358736 3.85714 0.421934 3.85714 0.485759V2.08527C3.85714 2.21421 3.90836 2.33786 3.99954 2.42904C4.09071 2.52021 4.21437 2.57143 4.3433 2.57143ZM13.6571 12.8571C13.7209 12.8571 13.7841 12.8446 13.8431 12.8201C13.902 12.7957 13.9556 12.7599 14.0007 12.7147C14.0458 12.6696 14.0816 12.616 14.106 12.557C14.1304 12.498 14.1429 12.4348 14.1429 12.371V10.7715C14.1429 10.6426 14.0917 10.5191 14.0006 10.428C13.9095 10.3369 13.7859 10.2857 13.6571 10.2857H4.3433C4.27948 10.2857 4.21627 10.2982 4.15729 10.3226C4.09831 10.347 4.04471 10.3827 3.99956 10.4278C3.95441 10.473 3.91859 10.5265 3.89416 10.5855C3.86972 10.6445 3.85714 10.7076 3.85714 10.7715V12.371C3.85714 12.4348 3.86972 12.498 3.89415 12.557C3.91858 12.616 3.95439 12.6696 3.99954 12.7147C4.04468 12.7599 4.09827 12.7957 4.15726 12.8201C4.21624 12.8446 4.27946 12.8571 4.3433 12.8571H13.6571Z" fill="#313638"/>
</svg>
