<svg width="180" height="180" viewBox="0 0 180 180" fill="none" xmlns="http://www.w3.org/2000/svg">
<circle cx="90" cy="90" r="90" fill="#F81411"/>
<path d="M109.406 36.625H128.742V104.617C128.742 112.445 127.055 119.031 123.68 124.375C120.305 129.672 115.711 133.68 109.898 136.398C104.086 139.07 97.4766 140.406 90.0703 140.406C82.5703 140.406 75.8906 139.07 70.0312 136.398C64.1719 133.68 59.5781 129.672 56.25 124.375C52.9219 119.031 51.2578 112.445 51.2578 104.617V36.625H70.5938V104.617C70.5938 109.398 71.3906 113.312 72.9844 116.359C74.5781 119.359 76.8281 121.586 79.7344 123.039C82.6406 124.492 86.0859 125.219 90.0703 125.219C94.1016 125.219 97.5469 124.492 100.406 123.039C103.312 121.586 105.539 119.359 107.086 116.359C108.633 113.312 109.406 109.398 109.406 104.617V36.625Z" fill="white"/>
</svg>
