<svg width="50" height="50" viewBox="0 0 50 50" fill="none" xmlns="http://www.w3.org/2000/svg">
<circle cx="25" cy="25" r="25" fill="#F81411"/>
<path d="M29.8516 11.4062H34.6855V28.4043C34.6855 30.3613 34.2637 32.0078 33.4199 33.3438C32.5762 34.668 31.4277 35.6699 29.9746 36.3496C28.5215 37.0176 26.8691 37.3516 25.0176 37.3516C23.1426 37.3516 21.4727 37.0176 20.0078 36.3496C18.543 35.6699 17.3945 34.668 16.5625 33.3438C15.7305 32.0078 15.3145 30.3613 15.3145 28.4043V11.4062H20.1484V28.4043C20.1484 29.5996 20.3477 30.5781 20.7461 31.3398C21.1445 32.0898 21.707 32.6465 22.4336 33.0098C23.1602 33.373 24.0215 33.5547 25.0176 33.5547C26.0254 33.5547 26.8867 33.373 27.6016 33.0098C28.3281 32.6465 28.8848 32.0898 29.2715 31.3398C29.6582 30.5781 29.8516 29.5996 29.8516 28.4043V11.4062Z" fill="white"/>
</svg>
