<svg width="146" height="50" viewBox="0 0 146 50" fill="none" xmlns="http://www.w3.org/2000/svg">
<path d="M61.1688 28.3438V48.5H58.2625V25.0938H60.9188L61.1688 28.3438ZM72.5594 33.4062V33.7344C72.5594 34.9635 72.4135 36.1042 72.1219 37.1562C71.8302 38.1979 71.4031 39.1042 70.8406 39.875C70.2885 40.6458 69.6063 41.2448 68.7938 41.6719C67.9813 42.099 67.049 42.3125 65.9969 42.3125C64.924 42.3125 63.976 42.1354 63.1531 41.7812C62.3302 41.4271 61.6323 40.9115 61.0594 40.2344C60.4865 39.5573 60.0281 38.7448 59.6844 37.7969C59.351 36.849 59.1219 35.7812 58.9969 34.5938V32.8438C59.1219 31.5938 59.3563 30.474 59.7 29.4844C60.0438 28.4948 60.4969 27.651 61.0594 26.9531C61.6323 26.2448 62.325 25.7083 63.1375 25.3438C63.95 24.9688 64.8875 24.7812 65.95 24.7812C67.0125 24.7812 67.9552 24.9896 68.7781 25.4062C69.601 25.8125 70.2938 26.3958 70.8563 27.1562C71.4188 27.9167 71.8406 28.8281 72.1219 29.8906C72.4135 30.9427 72.5594 32.1146 72.5594 33.4062ZM69.6531 33.7344V33.4062C69.6531 32.5625 69.5646 31.7708 69.3875 31.0312C69.2104 30.2812 68.9344 29.625 68.5594 29.0625C68.1948 28.4896 67.726 28.0417 67.1531 27.7188C66.5802 27.3854 65.8979 27.2188 65.1063 27.2188C64.3771 27.2188 63.7417 27.3438 63.2 27.5938C62.6688 27.8438 62.2156 28.1823 61.8406 28.6094C61.4656 29.026 61.1583 29.5052 60.9188 30.0469C60.6896 30.5781 60.5177 31.1302 60.4031 31.7031V35.75C60.6115 36.4792 60.9031 37.1667 61.2781 37.8125C61.6531 38.4479 62.1531 38.9635 62.7781 39.3594C63.4031 39.7448 64.1896 39.9375 65.1375 39.9375C65.9188 39.9375 66.5906 39.776 67.1531 39.4531C67.726 39.1198 68.1948 38.6667 68.5594 38.0938C68.9344 37.5208 69.2104 36.8646 69.3875 36.125C69.5646 35.375 69.6531 34.5781 69.6531 33.7344ZM74.2013 33.7344V33.375C74.2013 32.1562 74.3783 31.026 74.7325 29.9844C75.0867 28.9323 75.5971 28.0208 76.2638 27.25C76.9304 26.4688 77.7377 25.8646 78.6856 25.4375C79.6335 25 80.696 24.7812 81.8731 24.7812C83.0606 24.7812 84.1283 25 85.0763 25.4375C86.0346 25.8646 86.8471 26.4688 87.5138 27.25C88.1908 28.0208 88.7065 28.9323 89.0606 29.9844C89.4148 31.026 89.5919 32.1562 89.5919 33.375V33.7344C89.5919 34.9531 89.4148 36.0833 89.0606 37.125C88.7065 38.1667 88.1908 39.0781 87.5138 39.8594C86.8471 40.6302 86.0398 41.2344 85.0919 41.6719C84.1544 42.099 83.0919 42.3125 81.9044 42.3125C80.7169 42.3125 79.6492 42.099 78.7013 41.6719C77.7533 41.2344 76.9408 40.6302 76.2638 39.8594C75.5971 39.0781 75.0867 38.1667 74.7325 37.125C74.3783 36.0833 74.2013 34.9531 74.2013 33.7344ZM77.0919 33.375V33.7344C77.0919 34.5781 77.1908 35.375 77.3888 36.125C77.5867 36.8646 77.8835 37.5208 78.2794 38.0938C78.6856 38.6667 79.1908 39.1198 79.795 39.4531C80.3992 39.776 81.1023 39.9375 81.9044 39.9375C82.696 39.9375 83.3888 39.776 83.9825 39.4531C84.5867 39.1198 85.0867 38.6667 85.4825 38.0938C85.8783 37.5208 86.1752 36.8646 86.3731 36.125C86.5815 35.375 86.6856 34.5781 86.6856 33.7344V33.375C86.6856 32.5417 86.5815 31.7552 86.3731 31.0156C86.1752 30.2656 85.8731 29.6042 85.4669 29.0312C85.071 28.4479 84.571 27.9896 83.9669 27.6562C83.3731 27.3229 82.6752 27.1562 81.8731 27.1562C81.0815 27.1562 80.3835 27.3229 79.7794 27.6562C79.1856 27.9896 78.6856 28.4479 78.2794 29.0312C77.8835 29.6042 77.5867 30.2656 77.3888 31.0156C77.1908 31.7552 77.0919 32.5417 77.0919 33.375ZM101.781 37.5156C101.781 37.099 101.687 36.7135 101.499 36.3594C101.322 35.9948 100.952 35.6667 100.39 35.375C99.8379 35.0729 99.0046 34.8125 97.89 34.5938C96.9525 34.3958 96.1035 34.1615 95.3431 33.8906C94.5931 33.6198 93.9525 33.2917 93.4212 32.9062C92.9004 32.5208 92.4994 32.0677 92.2181 31.5469C91.9369 31.026 91.7962 30.4167 91.7962 29.7188C91.7962 29.0521 91.9421 28.4219 92.2337 27.8281C92.5358 27.2344 92.9577 26.7083 93.4994 26.25C94.0515 25.7917 94.7129 25.4323 95.4837 25.1719C96.2546 24.9115 97.114 24.7812 98.0619 24.7812C99.416 24.7812 100.572 25.0208 101.531 25.5C102.489 25.9792 103.223 26.6198 103.734 27.4219C104.244 28.2135 104.499 29.0938 104.499 30.0625H101.609C101.609 29.5938 101.468 29.1406 101.187 28.7031C100.916 28.2552 100.515 27.8854 99.9837 27.5938C99.4629 27.3021 98.8223 27.1562 98.0619 27.1562C97.2598 27.1562 96.6087 27.2812 96.1087 27.5312C95.6192 27.7708 95.2598 28.0781 95.0306 28.4531C94.8119 28.8281 94.7025 29.224 94.7025 29.6406C94.7025 29.9531 94.7546 30.2344 94.8587 30.4844C94.9733 30.724 95.1712 30.9479 95.4525 31.1562C95.7337 31.3542 96.1296 31.5417 96.64 31.7188C97.1504 31.8958 97.8015 32.0729 98.5931 32.25C99.9785 32.5625 101.119 32.9375 102.015 33.375C102.911 33.8125 103.577 34.349 104.015 34.9844C104.452 35.6198 104.671 36.3906 104.671 37.2969C104.671 38.0365 104.515 38.7135 104.202 39.3281C103.9 39.9427 103.458 40.474 102.874 40.9219C102.301 41.3594 101.614 41.7031 100.812 41.9531C100.02 42.1927 99.1296 42.3125 98.14 42.3125C96.6504 42.3125 95.39 42.0469 94.3587 41.5156C93.3275 40.9844 92.5462 40.2969 92.015 39.4531C91.4837 38.6094 91.2181 37.7188 91.2181 36.7812H94.1244C94.166 37.5729 94.3952 38.2031 94.8119 38.6719C95.2285 39.1302 95.739 39.4583 96.3431 39.6562C96.9473 39.8438 97.5462 39.9375 98.14 39.9375C98.9317 39.9375 99.5931 39.8333 100.124 39.625C100.666 39.4167 101.077 39.1302 101.359 38.7656C101.64 38.401 101.781 37.9844 101.781 37.5156ZM114.266 25.0938V27.3125H105.126V25.0938H114.266ZM108.219 20.9844H111.11V37.8125C111.11 38.3854 111.199 38.8177 111.376 39.1094C111.553 39.401 111.782 39.5938 112.063 39.6875C112.344 39.7812 112.646 39.8281 112.969 39.8281C113.209 39.8281 113.459 39.8073 113.719 39.7656C113.99 39.7135 114.193 39.6719 114.329 39.6406L114.344 42C114.115 42.0729 113.813 42.1406 113.438 42.2031C113.074 42.276 112.631 42.3125 112.11 42.3125C111.402 42.3125 110.751 42.1719 110.157 41.8906C109.563 41.6094 109.089 41.1406 108.735 40.4844C108.391 39.8177 108.219 38.9219 108.219 37.7969V20.9844ZM123.393 42.3125C122.215 42.3125 121.148 42.1146 120.189 41.7188C119.241 41.3125 118.424 40.7448 117.736 40.0156C117.059 39.2865 116.538 38.4219 116.174 37.4219C115.809 36.4219 115.627 35.3281 115.627 34.1406V33.4844C115.627 32.1094 115.83 30.8854 116.236 29.8125C116.643 28.7292 117.195 27.8125 117.893 27.0625C118.59 26.3125 119.382 25.7448 120.268 25.3594C121.153 24.974 122.07 24.7812 123.018 24.7812C124.226 24.7812 125.268 24.9896 126.143 25.4062C127.028 25.8229 127.752 26.4062 128.314 27.1562C128.877 27.8958 129.294 28.7708 129.564 29.7812C129.835 30.7812 129.971 31.875 129.971 33.0625V34.3594H117.346V32H127.08V31.7812C127.038 31.0312 126.882 30.3021 126.611 29.5938C126.351 28.8854 125.934 28.3021 125.361 27.8438C124.788 27.3854 124.007 27.1562 123.018 27.1562C122.361 27.1562 121.757 27.2969 121.205 27.5781C120.653 27.849 120.179 28.2552 119.783 28.7969C119.387 29.3385 119.08 30 118.861 30.7812C118.643 31.5625 118.533 32.4635 118.533 33.4844V34.1406C118.533 34.9427 118.643 35.6979 118.861 36.4062C119.09 37.1042 119.419 37.7188 119.846 38.25C120.283 38.7812 120.809 39.1979 121.424 39.5C122.049 39.8021 122.757 39.9531 123.549 39.9531C124.57 39.9531 125.434 39.7448 126.143 39.3281C126.851 38.9115 127.471 38.3542 128.002 37.6562L129.752 39.0469C129.387 39.599 128.924 40.125 128.361 40.625C127.799 41.125 127.106 41.5312 126.283 41.8438C125.471 42.1562 124.507 42.3125 123.393 42.3125ZM142.722 38.7188V18H145.628V42H142.972L142.722 38.7188ZM131.347 33.7344V33.4062C131.347 32.1146 131.503 30.9427 131.816 29.8906C132.139 28.8281 132.592 27.9167 133.175 27.1562C133.769 26.3958 134.472 25.8125 135.284 25.4062C136.107 24.9896 137.024 24.7812 138.034 24.7812C139.097 24.7812 140.024 24.9688 140.816 25.3438C141.618 25.7083 142.295 26.2448 142.847 26.9531C143.409 27.651 143.852 28.4948 144.175 29.4844C144.498 30.474 144.722 31.5938 144.847 32.8438V34.2812C144.732 35.5208 144.508 36.6354 144.175 37.625C143.852 38.6146 143.409 39.4583 142.847 40.1562C142.295 40.8542 141.618 41.3906 140.816 41.7656C140.014 42.1302 139.076 42.3125 138.003 42.3125C137.014 42.3125 136.107 42.099 135.284 41.6719C134.472 41.2448 133.769 40.6458 133.175 39.875C132.592 39.1042 132.139 38.1979 131.816 37.1562C131.503 36.1042 131.347 34.9635 131.347 33.7344ZM134.253 33.4062V33.7344C134.253 34.5781 134.336 35.3698 134.503 36.1094C134.68 36.849 134.951 37.5 135.316 38.0625C135.68 38.625 136.144 39.0677 136.706 39.3906C137.269 39.7031 137.941 39.8594 138.722 39.8594C139.68 39.8594 140.467 39.6562 141.081 39.25C141.706 38.8438 142.206 38.3073 142.581 37.6406C142.956 36.974 143.248 36.25 143.456 35.4688V31.7031C143.331 31.1302 143.149 30.5781 142.909 30.0469C142.68 29.5052 142.378 29.026 142.003 28.6094C141.639 28.1823 141.185 27.8438 140.644 27.5938C140.113 27.3438 139.482 27.2188 138.753 27.2188C137.961 27.2188 137.279 27.3854 136.706 27.7188C136.144 28.0417 135.68 28.4896 135.316 29.0625C134.951 29.625 134.68 30.2812 134.503 31.0312C134.336 31.7708 134.253 32.5625 134.253 33.4062Z" fill="#F81411"/>
<circle cx="25" cy="25" r="25" fill="#F81411"/>
<path d="M29.8516 11.4062H34.6855V28.4043C34.6855 30.3613 34.2637 32.0078 33.4199 33.3438C32.5762 34.668 31.4277 35.6699 29.9746 36.3496C28.5215 37.0176 26.8691 37.3516 25.0176 37.3516C23.1426 37.3516 21.4727 37.0176 20.0078 36.3496C18.543 35.6699 17.3945 34.668 16.5625 33.3438C15.7305 32.0078 15.3145 30.3613 15.3145 28.4043V11.4062H20.1484V28.4043C20.1484 29.5996 20.3477 30.5781 20.7461 31.3398C21.1445 32.0898 21.707 32.6465 22.4336 33.0098C23.1602 33.373 24.0215 33.5547 25.0176 33.5547C26.0254 33.5547 26.8867 33.373 27.6016 33.0098C28.3281 32.6465 28.8848 32.0898 29.2715 31.3398C29.6582 30.5781 29.8516 29.5996 29.8516 28.4043V11.4062Z" fill="white"/>
</svg>
